<svg xmlns="http://www.w3.org/2000/svg" xmlns:xlink="http://www.w3.org/1999/xlink" width="29" height="31" version="1.1" viewBox="0 0 29 31"><title>Base + Rounded</title><desc>Created with Sketch.</desc><defs><filter id="filter-1" width="200%" height="200%" x="-50%" y="-50%" filterUnits="objectBoundingBox"><feOffset dx="0" dy="0" in="SourceAlpha" result="shadowOffsetOuter1"/><feGaussianBlur in="shadowOffsetOuter1" result="shadowBlurOuter1" stdDeviation="1"/><feColorMatrix in="shadowBlurOuter1" result="shadowMatrixOuter1" type="matrix" values="0 0 0 0 0.453656463 0 0 0 0 0.453656463 0 0 0 0 0.453656463 0 0 0 1 0"/><feMerge><feMergeNode in="shadowMatrixOuter1"/><feMergeNode in="SourceGraphic"/></feMerge></filter><path id="path-2" d="M10.3641418,7.87261761 L8.05156892,4.58219002 C8.01470586,4.52973969 8.02759844,4.45737948 8.08074215,4.42030608 L14.4171314,-4.54747351e-14 L10.3641418,7.87261761 L10.3641418,7.87261761 Z"/><filter id="filter-3" width="200%" height="200%" x="-50%" y="-50%" filterUnits="objectBoundingBox"><feOffset dx="0" dy="0" in="SourceAlpha" result="shadowOffsetOuter1"/><feGaussianBlur in="shadowOffsetOuter1" result="shadowBlurOuter1" stdDeviation="1.5"/><feColorMatrix in="shadowBlurOuter1" type="matrix" values="0 0 0 0 0.488015519 0 0 0 0 0.488015519 0 0 0 0 0.488015519 0 0 0 1 0"/></filter></defs><g id="Onboarding-(local-bundle-set-password)" fill="none" fill-rule="evenodd" stroke="none" stroke-width="1"><g id="openbazaar-2.0-page-empty" transform="translate(-1074.000000, -10.000000)"><g id="Base-+-Rounded" filter="url(#filter-1)" transform="translate(1076.000000, 12.000000)"><g id="Rounded"><path id="Background" fill="#FFF" d="M0,2.00359486 C0,0.897039974 0.889763236,0 2.00359486,0 L22.9964051,0 C24.10296,0 25,0.889763236 25,2.00359486 L25,22.9964051 C25,24.10296 24.1088558,25 22.9918984,25 L16.9599609,25 L16.484375,25 L16.484375,23.25 L9.2,23.25 L8.41552734,25 L1.99436251,25 C0.89290651,25 0,24.1102368 0,22.9964051 L0,2.00359486 Z"/><g id="Logo" transform="translate(3.333333, 0.833333)"><g id="Base" transform="translate(1.046902, 16.256951)"><polygon id="Path-38" fill="#0474BE" points="0 0 1.816 7.901 4.066 7.901 8.083 0 12.098 7.901 14.366 7.901 16.167 0"/><path id="Left-Flap" fill="#FFF" d="M4.07108215,7.87261761 L1.75850926,4.58219002 C1.7216462,4.52973969 1.73453879,4.45737948 1.78768249,4.42030608 C1.78768249,4.42030608 3.95022981,2.9116991 5.03150347,2.1573956 C5.17042187,2.06048523 8.12407173,-4.54747351e-14 8.12407173,-4.54747351e-14 L4.07108215,7.87261761 L4.07108215,7.87261761 Z"/><g id="Left-Flap" transform="translate(11.223853, 3.936309) scale(-1, 1) translate(-11.223853, -3.936309)"><use fill="#000" fill-opacity="1" filter="url(#filter-3)" xlink:href="#path-2"/><use fill="#FFF" fill-rule="evenodd" xlink:href="#path-2"/></g><polygon id="Shadow" fill="#16242D" points="4.656 6.754 8.084 0 11.501 6.754"/></g><g id="Roof"><path id="Shape" fill="#287EE1" d="M18.1928318,14.3525656 L18.1928318,14.3409534 C18.1346706,14.1783839 17.2506199,11.7224231 17.2448038,11.6991989 C17.2215393,11.6295262 15.6511862,7.25756753 15.6221056,7.18789488 C15.308035,7.20531305 14.8718258,7.20531305 14.360007,7.14144645 C13.8365559,7.07757986 12.79547,6.94404062 11.707855,6.30537467 C10.5039176,5.60284214 9.71292492,4.63323111 9.41048654,4.09326809 C10.2014792,5.76541165 11.4344972,7.88462137 13.3305532,10.0328614 C15.0753901,12.0127258 16.7620656,13.3887606 18.1928318,14.3525656 L18.1928318,14.3525656 Z"/><path id="Shape" fill="#025A92" d="M4.99023328,9.89932211 C6.9153699,7.69882764 8.17746852,5.54478159 9.00917407,3.84360777 C8.98590958,3.83780171 8.43919405,5.08610333 7.12475031,5.96862354 C6.13019333,6.6305137 5.15308472,6.79888926 4.53657571,6.90339824 C3.86190548,7.01951932 3.28029321,7.02532537 2.87316462,7.00790721 C1.93676886,9.44064385 0.994556983,11.8443502 0.0581612271,14.2828929 L0.0639773498,14.3061171 L0.0697934725,14.3061171 C1.52382415,13.2784456 3.24539647,11.9024108 4.99023328,9.89932211 L4.99023328,9.89932211 Z"/><path id="Shape" fill="#1062A9" d="M18.1928318,14.3409534 L18.1928318,14.3409534 C16.7620656,13.3713424 15.0753901,11.9953076 13.3305532,10.0212492 C11.4286811,7.87300926 10.2014792,5.74799349 9.41048654,4.08165598 C9.34650919,3.94231068 9.28253184,3.80296539 9.21855449,3.66942614 C9.17784163,3.65781404 9.14294489,3.64039587 9.10804816,3.62878377 C9.07896754,3.69265036 9.04407081,3.76232301 9.00917407,3.8261896 C8.18328465,5.52736343 6.9153699,7.68140948 4.99023328,9.88190395 C3.23958035,11.8849926 1.52382415,13.2436092 0.0639773498,14.2654747"/><path id="Shape" fill="#025A92" d="M9.10804816,16.2511452 L17.2506199,16.2569513 L17.8147838,16.2569513 L18.2044641,14.3061171 C12.1091675,14.3061171 6.1476417,14.2596687 0.0523451044,14.2596687 L0.546715534,16.2627573 L1.0759827,16.2627573 L9.10804816,16.2511452 L9.10804816,16.2511452 Z"/><path id="Flag" fill="#DCDCDC" d="M10.6202401,3.91405545 C11.3065425,3.89083124 11.6671421,3.66439513 12.2836512,3.51924378 C12.8245506,3.38570453 13.6271755,3.29861372 14.691526,3.54246799 C14.4414327,3.25216529 14.0982814,2.897996 13.6329916,2.56124486 C13.2782081,2.30577849 12.940873,2.11998476 12.6500669,1.98063946 C12.7663893,1.76000941 12.9350569,1.49873698 13.1677018,1.2432706 C13.8074753,0.546544116 14.5810196,0.273659577 14.9881482,0.16334455 C14.5577551,0.0472234698 13.9877751,-0.0456733946 13.3421855,0.0239992537 C12.2196738,0.140120334 11.7660162,0.645247034 10.6958497,0.709113629 C10.2712727,0.732337845 9.72455716,0.691695467 9.07315142,0.453647252 L9.07315142,3.60052853 C9.10223203,3.61214064 9.13712877,3.62375275 9.16620938,3.64117091 C9.20110612,3.65858907 9.24181898,3.67020118 9.27671572,3.68181329 C9.61986696,3.81535253 10.0793406,3.93147361 10.6202401,3.91405545 L10.6202401,3.91405545 Z"/></g></g></g></g></g></g></svg>